<?xml version="1.0" encoding="UTF-8"?>
<svg width="32" height="32" viewBox="0 0 32 32" fill="none" xmlns="http://www.w3.org/2000/svg">
  <!-- Background Circle -->
  <circle cx="16" cy="16" r="16" fill="#2563EB"/>
  
  <!-- Signal Waves -->
  <path d="M16 8C19.3 8 22 10.7 22 14" stroke="white" stroke-width="2" stroke-linecap="round" opacity="0.6"/>
  <path d="M16 11C17.7 11 19 12.3 19 14" stroke="white" stroke-width="2" stroke-linecap="round" opacity="0.8"/>
  
  <!-- CS Letters -->
  <path d="M12 14C12 12.3431 13.3431 11 15 11H16V14C16 15.6569 14.6569 17 13 17H12V14Z" fill="white"/>
  <path d="M16 19C16 20.6569 17.3431 22 19 22H20V19C20 17.3431 18.6569 16 17 16H16V19Z" fill="white"/>
  
  <!-- Center Dot -->
  <circle cx="16" cy="16" r="2" fill="white"/>
</svg>
    